<svg width="180" height="38" viewBox="0 0 180 38" fill="none" xmlns="http://www.w3.org/2000/svg">
<path d="M14.2 0H23.5L35.8 21.7L48.1 0H57.4V37.2H50.1V11.4L40.1 28.6H31.5L21.5 11.4V37.2H14.2V0Z" fill="currentColor"/>
<path d="M77.7 0V7.3H63.4V14.6H76.2V21.9H63.4V29.9H78.1V37.2H56.1V0H77.7Z" fill="currentColor"/>
<path d="M109.8 0L94.1 18.9L110.7 37.2H101.3L88.8 23.7L76.3 37.2H66.9L83.5 18.9L67.8 0H77.2L89.7 13.5L102.2 0H109.8Z" fill="currentColor"/>
<path d="M135.6 0V30.8H154.3V37.2H128.3V0H135.6Z" fill="currentColor"/>
<path d="M171.9 0H179.2V7.3H171.9V0ZM171.9 14.6H179.2V37.2H171.9V14.6Z" fill="currentColor"/>
</svg>